<svg width="247" height="34" viewBox="0 0 247 34" fill="none" xmlns="http://www.w3.org/2000/svg">
<g filter="url(#filter0_d_107_126)">
<path d="M72.3409 11.089C72.017 8.67706 70.0738 7.18558 66.767 7.18558C63.4176 7.18558 61.2102 8.73672 61.2187 11.2594C61.2102 13.2197 62.446 14.4896 65.0028 15.0009L67.2698 15.4526C68.4119 15.6827 68.9318 16.1004 68.9488 16.7566C68.9318 17.5322 68.088 18.0861 66.8181 18.0861C65.5227 18.0861 64.6619 17.5322 64.4403 16.4668L60.8693 16.6543C61.2102 19.16 63.3409 20.7026 66.8096 20.7026C70.2016 20.7026 72.6306 18.9725 72.6392 16.3901C72.6306 14.4981 71.3948 13.3646 68.8551 12.8447L66.4857 12.3674C65.267 12.1032 64.8153 11.6856 64.8238 11.0549C64.8153 10.2708 65.7016 9.75944 66.8266 9.75944C68.088 9.75944 68.838 10.4498 69.017 11.2935L72.3409 11.089Z" fill="#F8F8F8"/>
<path d="M74.9254 25.356H78.5561V18.3504H78.6668C79.1697 19.4413 80.2691 20.66 82.3828 20.66C85.3657 20.66 87.6924 18.2992 87.6924 13.9185C87.6924 9.41854 85.2634 7.18558 82.3913 7.18558C80.2009 7.18558 79.1526 8.48956 78.6668 9.5549H78.5049V7.35603H74.9254V25.356ZM78.4793 13.9015C78.4793 11.5663 79.468 10.0748 81.2322 10.0748C83.0305 10.0748 83.985 11.6344 83.985 13.9015C83.985 16.1856 83.0134 17.7708 81.2322 17.7708C79.485 17.7708 78.4793 16.2367 78.4793 13.9015Z" fill="#F8F8F8"/>
<path d="M93.8458 20.6941C95.7805 20.6941 97.0333 19.8504 97.6725 18.6316H97.7748V20.4469H101.218V11.6174C101.218 8.49808 98.5759 7.18558 95.6612 7.18558C92.5248 7.18558 90.4623 8.68558 89.9595 11.0719L93.3174 11.3447C93.5646 10.4754 94.3401 9.83615 95.6441 9.83615C96.8799 9.83615 97.5873 10.4583 97.5873 11.5322V11.5833C97.5873 12.4271 96.6924 12.5379 94.4168 12.7594C91.8259 12.9981 89.4992 13.8674 89.4992 16.7907C89.4992 19.3816 91.3487 20.6941 93.8458 20.6941ZM94.8856 18.1884C93.7691 18.1884 92.968 17.6685 92.968 16.6714C92.968 15.6487 93.8117 15.1458 95.0901 14.9668C95.8828 14.856 97.1782 14.6685 97.6129 14.3788V15.768C97.6129 17.1401 96.4793 18.1884 94.8856 18.1884Z" fill="#F8F8F8"/>
<path d="M109.95 20.7026C113.435 20.7026 115.626 18.6572 115.796 15.6486H112.37C112.157 17.0464 111.236 17.8305 109.992 17.8305C108.296 17.8305 107.197 16.4072 107.197 13.9015C107.197 11.4299 108.305 10.0151 109.992 10.0151C111.322 10.0151 112.174 10.893 112.37 12.1969H115.796C115.643 9.17138 113.35 7.18558 109.932 7.18558C105.961 7.18558 103.506 9.93842 103.506 13.9526C103.506 17.9327 105.918 20.7026 109.95 20.7026Z" fill="#F8F8F8"/>
<path d="M124.087 20.7026C127.325 20.7026 129.507 19.1259 130.018 16.6969L126.66 16.4754C126.294 17.4725 125.356 17.9924 124.146 17.9924C122.331 17.9924 121.18 16.7907 121.18 14.839V14.8305H130.095V13.8333C130.095 9.38445 127.402 7.18558 123.942 7.18558C120.089 7.18558 117.592 9.92138 117.592 13.9611C117.592 18.1117 120.055 20.7026 124.087 20.7026ZM121.18 12.5805C121.257 11.089 122.391 9.89581 124.001 9.89581C125.578 9.89581 126.669 11.0208 126.678 12.5805H121.18Z" fill="#F8F8F8"/>
<path d="M139.428 7.35603H136.964V4.21967H133.334V7.35603H131.544V10.0833H133.334V16.9015C133.317 19.4668 135.064 20.7367 137.697 20.6259C138.635 20.5918 139.3 20.4043 139.666 20.285L139.095 17.5833C138.916 17.6174 138.533 17.7026 138.192 17.7026C137.467 17.7026 136.964 17.4299 136.964 16.4242V10.0833H139.428V7.35603Z" fill="#F8F8F8"/>
<path d="M141.793 20.4469H145.423V13.0407C145.423 11.4299 146.599 10.3219 148.202 10.3219C148.704 10.3219 149.395 10.4072 149.736 10.518V7.29638C149.412 7.21967 148.96 7.16853 148.594 7.16853C147.128 7.16853 145.926 8.02081 145.449 9.64013H145.312V7.35603H141.793V20.4469Z" fill="#F8F8F8"/>
<path d="M154.971 20.6941C156.905 20.6941 158.158 19.8504 158.798 18.6316H158.9V20.4469H162.343V11.6174C162.343 8.49808 159.701 7.18558 156.786 7.18558C153.65 7.18558 151.587 8.68558 151.084 11.0719L154.442 11.3447C154.69 10.4754 155.465 9.83615 156.769 9.83615C158.005 9.83615 158.712 10.4583 158.712 11.5322V11.5833C158.712 12.4271 157.817 12.5379 155.542 12.7594C152.951 12.9981 150.624 13.8674 150.624 16.7907C150.624 19.3816 152.474 20.6941 154.971 20.6941ZM156.011 18.1884C154.894 18.1884 154.093 17.6685 154.093 16.6714C154.093 15.6487 154.937 15.1458 156.215 14.9668C157.008 14.856 158.303 14.6685 158.738 14.3788V15.768C158.738 17.1401 157.604 18.1884 156.011 18.1884Z" fill="#F8F8F8"/>
<path d="M176.896 7.35603H173.052L170.342 16.7225H170.205L167.486 7.35603H163.651L168.228 20.4469H172.319L176.896 7.35603Z" fill="#F8F8F8"/>
<path d="M184.274 20.7026C187.513 20.7026 189.695 19.1259 190.206 16.6969L186.848 16.4754C186.481 17.4725 185.544 17.9924 184.334 17.9924C182.518 17.9924 181.368 16.7907 181.368 14.839V14.8305H190.283V13.8333C190.283 9.38445 187.589 7.18558 184.129 7.18558C180.277 7.18558 177.78 9.92138 177.78 13.9611C177.78 18.1117 180.243 20.7026 184.274 20.7026ZM181.368 12.5805C181.445 11.089 182.578 9.89581 184.189 9.89581C185.766 9.89581 186.856 11.0208 186.865 12.5805H181.368Z" fill="#F8F8F8"/>
<path d="M196.283 2.9924H192.652V20.4469H196.283V2.9924Z" fill="#F8F8F8"/>
<path d="M199.191 20.4469H202.822V7.35603H199.191V20.4469ZM201.015 5.66853C202.097 5.66853 202.984 4.84183 202.984 3.82763C202.984 2.82194 202.097 1.99524 201.015 1.99524C199.941 1.99524 199.055 2.82194 199.055 3.82763C199.055 4.84183 199.941 5.66853 201.015 5.66853Z" fill="#F8F8F8"/>
<path d="M209.361 12.8788C209.369 11.1913 210.375 10.2026 211.841 10.2026C213.298 10.2026 214.176 11.1572 214.168 12.7594V20.4469H217.798V12.1117C217.798 9.06058 216.008 7.18558 213.281 7.18558C211.338 7.18558 209.932 8.14013 209.344 9.66569H209.19V7.35603H205.73V20.4469H209.361V12.8788Z" fill="#F8F8F8"/>
<path d="M226.557 25.6288C230.299 25.6288 232.958 23.9242 232.958 20.5748V7.35603H229.353V9.5549H229.217C228.731 8.48956 227.665 7.18558 225.475 7.18558C222.603 7.18558 220.174 9.41854 220.174 13.8759C220.174 18.231 222.535 20.2594 225.484 20.2594C227.572 20.2594 228.739 19.2111 229.217 18.1288H229.37V20.5236C229.37 22.3219 228.219 23.0208 226.643 23.0208C225.04 23.0208 224.231 22.3219 223.932 21.5293L220.575 21.981C221.009 24.0435 223.029 25.6288 226.557 25.6288ZM226.634 17.5322C224.853 17.5322 223.881 16.1174 223.881 13.8589C223.881 11.6344 224.836 10.0748 226.634 10.0748C228.398 10.0748 229.387 11.5663 229.387 13.8589C229.387 16.1685 228.381 17.5322 226.634 17.5322Z" fill="#F8F8F8"/>
<path d="M240.571 20.6685C241.662 20.6685 242.608 19.7566 242.616 18.6231C242.608 17.5066 241.662 16.5947 240.571 16.5947C239.446 16.5947 238.517 17.5066 238.526 18.6231C238.517 19.7566 239.446 20.6685 240.571 20.6685Z" fill="#FF57B2"/>
<path d="M13.881 0L4 11.5045L13.881 23.007L16.2174 19.3298L9.55897 11.5025L16.2174 3.67523L13.881 0ZM18.2051 22.7323H22.5415L29.4359 0.211919H25.0974L18.2051 22.7323ZM34.119 0L31.7826 3.6772L38.441 11.5045L31.7826 19.3318L34.119 23.009L44 11.5065L34.119 0Z" fill="#FF57B2"/>
</g>
<defs>
<filter id="filter0_d_107_126" x="0" y="0" width="246.616" height="33.6288" filterUnits="userSpaceOnUse" color-interpolation-filters="sRGB">
<feFlood flood-opacity="0" result="BackgroundImageFix"/>
<feColorMatrix in="SourceAlpha" type="matrix" values="0 0 0 0 0 0 0 0 0 0 0 0 0 0 0 0 0 0 127 0" result="hardAlpha"/>
<feOffset dy="4"/>
<feGaussianBlur stdDeviation="2"/>
<feComposite in2="hardAlpha" operator="out"/>
<feColorMatrix type="matrix" values="0 0 0 0 0 0 0 0 0 0 0 0 0 0 0 0 0 0 0.25 0"/>
<feBlend mode="normal" in2="BackgroundImageFix" result="effect1_dropShadow_107_126"/>
<feBlend mode="normal" in="SourceGraphic" in2="effect1_dropShadow_107_126" result="shape"/>
</filter>
</defs>
</svg>
